<svg width="1600" height="980" viewBox="0 0 1600 980" fill="none" xmlns="http://www.w3.org/2000/svg">
  <defs>
    <linearGradient id="glass" x1="330" y1="160" x2="1270" y2="820" gradientUnits="userSpaceOnUse">
      <stop stop-color="#FFFFFF"/>
      <stop offset="1" stop-color="#F4F4F6"/>
    </linearGradient>
    <linearGradient id="shine" x1="520" y1="160" x2="880" y2="620" gradientUnits="userSpaceOnUse">
      <stop stop-color="#FFFFFF" stop-opacity="0.75"/>
      <stop offset="1" stop-color="#FFFFFF" stop-opacity="0"/>
    </linearGradient>
    <filter id="shadow" x="0" y="0" width="1600" height="980" filterUnits="userSpaceOnUse" color-interpolation-filters="sRGB">
      <feFlood flood-opacity="0" result="BackgroundImageFix"/>
      <feColorMatrix in="SourceAlpha" type="matrix" values="0 0 0 0 0 0 0 0 0 0 0 0 0 0 0 0 0 0 127 0" result="hardAlpha"/>
      <feOffset dy="24"/>
      <feGaussianBlur stdDeviation="28"/>
      <feColorMatrix type="matrix" values="0 0 0 0 0 0 0 0 0 0 0 0 0 0 0 0 0 0 0.12 0"/>
      <feBlend mode="normal" in2="BackgroundImageFix" result="effect1_dropShadow"/>
      <feBlend mode="normal" in="SourceGraphic" in2="effect1_dropShadow" result="shape"/>
    </filter>
  </defs>

  <!-- Background -->
  <rect width="1600" height="980" rx="56" fill="#F6F6F8"/>

  <!-- Device frame -->
  <g filter="url(#shadow)">
    <rect x="330" y="130" width="940" height="720" rx="56" fill="url(#glass)"/>
    <rect x="360" y="160" width="880" height="660" rx="44" fill="#FFFFFF"/>
  </g>

  <!-- Top bar -->
  <rect x="392" y="196" width="816" height="64" rx="20" fill="#F2F2F4"/>
  <circle cx="435" cy="228" r="10" fill="#0A84FF" opacity="0.95"/>
  <rect x="458" y="220" width="170" height="16" rx="8" fill="#1D1D1F" opacity="0.85"/>
  <rect x="1020" y="218" width="164" height="20" rx="10" fill="#0A84FF" opacity="0.15"/>

  <!-- Hero content blocks -->
  <rect x="392" y="292" width="520" height="74" rx="22" fill="#1D1D1F" opacity="0.06"/>
  <rect x="392" y="382" width="460" height="24" rx="12" fill="#1D1D1F" opacity="0.08"/>
  <rect x="392" y="416" width="390" height="24" rx="12" fill="#1D1D1F" opacity="0.08"/>
  <rect x="392" y="462" width="210" height="44" rx="22" fill="#0A84FF" opacity="0.92"/>
  <rect x="616" y="462" width="200" height="44" rx="22" fill="#0A84FF" opacity="0.12"/>

  <!-- Right-side preview tiles -->
  <rect x="940" y="292" width="268" height="130" rx="24" fill="#F2F2F4"/>
  <rect x="964" y="320" width="160" height="14" rx="7" fill="#1D1D1F" opacity="0.22"/>
  <rect x="964" y="344" width="120" height="14" rx="7" fill="#1D1D1F" opacity="0.14"/>
  <rect x="964" y="380" width="220" height="18" rx="9" fill="#0A84FF" opacity="0.15"/>

  <rect x="940" y="440" width="268" height="130" rx="24" fill="#F2F2F4"/>
  <rect x="964" y="468" width="140" height="14" rx="7" fill="#1D1D1F" opacity="0.22"/>
  <rect x="964" y="492" width="190" height="14" rx="7" fill="#1D1D1F" opacity="0.14"/>
  <rect x="964" y="526" width="220" height="18" rx="9" fill="#0A84FF" opacity="0.15"/>

  <rect x="940" y="588" width="268" height="232" rx="24" fill="#F2F2F4"/>
  <rect x="964" y="616" width="150" height="14" rx="7" fill="#1D1D1F" opacity="0.22"/>
  <rect x="964" y="650" width="220" height="120" rx="18" fill="#FFFFFF"/>
  <rect x="984" y="678" width="88" height="14" rx="7" fill="#0A84FF" opacity="0.35"/>
  <rect x="984" y="702" width="168" height="12" rx="6" fill="#1D1D1F" opacity="0.10"/>
  <rect x="984" y="724" width="142" height="12" rx="6" fill="#1D1D1F" opacity="0.10"/>

  <!-- Gloss -->
  <path d="M365 160C365 136.699 383.699 118 407 118H1213C1236.3 118 1255 136.699 1255 160V260C1188 342 1068 388 926 388C716 388 548 289 452 196C412 157 380 146 365 160Z" fill="url(#shine)"/>
</svg>

