<svg width="1200" height="820" viewBox="0 0 1200 820" fill="none" xmlns="http://www.w3.org/2000/svg">
  <defs>
    <filter id="s" x="0" y="0" width="1200" height="820" filterUnits="userSpaceOnUse" color-interpolation-filters="sRGB">
      <feFlood flood-opacity="0" result="BackgroundImageFix"/>
      <feColorMatrix in="SourceAlpha" type="matrix" values="0 0 0 0 0 0 0 0 0 0 0 0 0 0 0 0 0 0 127 0" result="hardAlpha"/>
      <feOffset dy="18"/>
      <feGaussianBlur stdDeviation="22"/>
      <feColorMatrix type="matrix" values="0 0 0 0 0 0 0 0 0 0 0 0 0 0 0 0 0 0 0.12 0"/>
      <feBlend mode="normal" in2="BackgroundImageFix" result="effect1_dropShadow"/>
      <feBlend mode="normal" in="SourceGraphic" in2="effect1_dropShadow" result="shape"/>
    </filter>
  </defs>

  <rect width="1200" height="820" rx="44" fill="#FFFFFF"/>
  <g filter="url(#s)">
    <rect x="150" y="110" width="900" height="600" rx="56" fill="#F6F6F8"/>
    <rect x="190" y="150" width="820" height="520" rx="44" fill="#FFFFFF"/>
  </g>

  <rect x="240" y="210" width="300" height="28" rx="14" fill="#1D1D1F" opacity="0.18"/>
  <rect x="240" y="252" width="420" height="18" rx="9" fill="#1D1D1F" opacity="0.10"/>

  <rect x="240" y="320" width="720" height="340" rx="28" fill="#F2F2F4"/>
  <rect x="280" y="362" width="180" height="16" rx="8" fill="#1D1D1F" opacity="0.14"/>

  <rect x="280" y="406" width="640" height="210" rx="22" fill="#FFFFFF"/>
  <rect x="320" y="560" width="48" height="28" rx="10" fill="#0A84FF" opacity="0.85"/>
  <rect x="388" y="530" width="48" height="58" rx="10" fill="#0A84FF" opacity="0.35"/>
  <rect x="456" y="518" width="48" height="70" rx="10" fill="#0A84FF" opacity="0.55"/>
  <rect x="524" y="488" width="48" height="100" rx="10" fill="#0A84FF" opacity="0.85"/>
  <rect x="592" y="508" width="48" height="80" rx="10" fill="#0A84FF" opacity="0.65"/>
  <rect x="660" y="472" width="48" height="116" rx="10" fill="#0A84FF" opacity="0.85"/>
  <rect x="728" y="520" width="48" height="68" rx="10" fill="#0A84FF" opacity="0.45"/>
</svg>

