<svg width="1200" height="820" viewBox="0 0 1200 820" fill="none" xmlns="http://www.w3.org/2000/svg">
  <defs>
    <filter id="s" x="0" y="0" width="1200" height="820" filterUnits="userSpaceOnUse" color-interpolation-filters="sRGB">
      <feFlood flood-opacity="0" result="BackgroundImageFix"/>
      <feColorMatrix in="SourceAlpha" type="matrix" values="0 0 0 0 0 0 0 0 0 0 0 0 0 0 0 0 0 0 127 0" result="hardAlpha"/>
      <feOffset dy="18"/>
      <feGaussianBlur stdDeviation="22"/>
      <feColorMatrix type="matrix" values="0 0 0 0 0 0 0 0 0 0 0 0 0 0 0 0 0 0 0.12 0"/>
      <feBlend mode="normal" in2="BackgroundImageFix" result="effect1_dropShadow"/>
      <feBlend mode="normal" in="SourceGraphic" in2="effect1_dropShadow" result="shape"/>
    </filter>
  </defs>

  <rect width="1200" height="820" rx="44" fill="#FFFFFF"/>
  <g filter="url(#s)">
    <rect x="150" y="110" width="900" height="600" rx="56" fill="#F6F6F8"/>
    <rect x="190" y="150" width="820" height="520" rx="44" fill="#FFFFFF"/>
  </g>

  <rect x="240" y="210" width="320" height="28" rx="14" fill="#1D1D1F" opacity="0.18"/>
  <rect x="240" y="252" width="430" height="18" rx="9" fill="#1D1D1F" opacity="0.10"/>

  <rect x="240" y="320" width="360" height="280" rx="28" fill="#F2F2F4"/>
  <rect x="280" y="362" width="160" height="16" rx="8" fill="#1D1D1F" opacity="0.14"/>
  <rect x="280" y="392" width="220" height="44" rx="22" fill="#0A84FF" opacity="0.20"/>
  <rect x="280" y="460" width="260" height="14" rx="7" fill="#1D1D1F" opacity="0.10"/>
  <rect x="280" y="484" width="210" height="14" rx="7" fill="#1D1D1F" opacity="0.10"/>
  <rect x="280" y="530" width="140" height="44" rx="22" fill="#0A84FF" opacity="0.92"/>

  <rect x="650" y="320" width="320" height="280" rx="28" fill="#F2F2F4"/>
  <rect x="690" y="362" width="150" height="16" rx="8" fill="#1D1D1F" opacity="0.14"/>
  <rect x="690" y="392" width="220" height="44" rx="22" fill="#0A84FF" opacity="0.12"/>
  <rect x="690" y="460" width="260" height="14" rx="7" fill="#1D1D1F" opacity="0.10"/>
  <rect x="690" y="484" width="210" height="14" rx="7" fill="#1D1D1F" opacity="0.10"/>
  <rect x="690" y="530" width="140" height="44" rx="22" fill="#0A84FF" opacity="0.15"/>
</svg>

