<svg width="1200" height="820" viewBox="0 0 1200 820" fill="none" xmlns="http://www.w3.org/2000/svg">
  <defs>
    <filter id="s" x="0" y="0" width="1200" height="820" filterUnits="userSpaceOnUse" color-interpolation-filters="sRGB">
      <feFlood flood-opacity="0" result="BackgroundImageFix"/>
      <feColorMatrix in="SourceAlpha" type="matrix" values="0 0 0 0 0 0 0 0 0 0 0 0 0 0 0 0 0 0 127 0" result="hardAlpha"/>
      <feOffset dy="18"/>
      <feGaussianBlur stdDeviation="22"/>
      <feColorMatrix type="matrix" values="0 0 0 0 0 0 0 0 0 0 0 0 0 0 0 0 0 0 0.12 0"/>
      <feBlend mode="normal" in2="BackgroundImageFix" result="effect1_dropShadow"/>
      <feBlend mode="normal" in="SourceGraphic" in2="effect1_dropShadow" result="shape"/>
    </filter>
  </defs>

  <rect width="1200" height="820" rx="44" fill="#FFFFFF"/>
  <g filter="url(#s)">
    <rect x="170" y="110" width="860" height="600" rx="56" fill="#F6F6F8"/>
    <rect x="210" y="150" width="780" height="520" rx="44" fill="#FFFFFF"/>
  </g>

  <rect x="260" y="210" width="260" height="28" rx="14" fill="#1D1D1F" opacity="0.18"/>
  <rect x="260" y="254" width="430" height="18" rx="9" fill="#1D1D1F" opacity="0.10"/>
  <rect x="260" y="280" width="360" height="18" rx="9" fill="#1D1D1F" opacity="0.10"/>

  <rect x="260" y="340" width="680" height="120" rx="28" fill="#F2F2F4"/>
  <rect x="292" y="372" width="280" height="18" rx="9" fill="#1D1D1F" opacity="0.16"/>
  <rect x="292" y="402" width="400" height="14" rx="7" fill="#1D1D1F" opacity="0.10"/>

  <rect x="260" y="480" width="680" height="88" rx="28" fill="#F2F2F4"/>
  <rect x="292" y="512" width="340" height="16" rx="8" fill="#1D1D1F" opacity="0.12"/>

  <rect x="260" y="596" width="240" height="56" rx="28" fill="#0A84FF" opacity="0.92"/>
  <rect x="520" y="596" width="220" height="56" rx="28" fill="#0A84FF" opacity="0.12"/>
</svg>

